<svg width="73" height="73" viewBox="0 0 73 73" fill="none" xmlns="http://www.w3.org/2000/svg">
<g filter="url(#filter0_d_1_235)">
<circle cx="36.5" cy="36.5" r="19.5" fill="white"/>
<path d="M36.5 10C21.8873 10 10 21.8873 10 36.5C10 51.1127 21.8873 63 36.5 63C51.1127 63 63 51.1127 63 36.5C63 21.8873 51.1127 10 36.5 10ZM48.0938 38.7082H38.7082V48.0938C38.7082 49.3129 37.7191 50.3019 36.5 50.3019C35.2809 50.3019 34.2918 49.3129 34.2918 48.0938V38.7082H24.9062C23.6871 38.7082 22.6981 37.7191 22.6981 36.5C22.6981 35.2809 23.6871 34.2918 24.9062 34.2918H34.2918V24.9062C34.2918 23.6871 35.2809 22.6981 36.5 22.6981C37.7191 22.6981 38.7082 23.6871 38.7082 24.9062V34.2918H48.0938C49.3129 34.2918 50.3019 35.2809 50.3019 36.5C50.3019 37.7191 49.3129 38.7082 48.0938 38.7082Z" fill="#33B5EF"/>
</g>
<defs>
<filter id="filter0_d_1_235" x="0" y="0" width="73" height="73" filterUnits="userSpaceOnUse" color-interpolation-filters="sRGB">
<feFlood flood-opacity="0" result="BackgroundImageFix"/>
<feColorMatrix in="SourceAlpha" type="matrix" values="0 0 0 0 0 0 0 0 0 0 0 0 0 0 0 0 0 0 127 0" result="hardAlpha"/>
<feOffset/>
<feGaussianBlur stdDeviation="5"/>
<feComposite in2="hardAlpha" operator="out"/>
<feColorMatrix type="matrix" values="0 0 0 0 0 0 0 0 0 0 0 0 0 0 0 0 0 0 0.2 0"/>
<feBlend mode="normal" in2="BackgroundImageFix" result="effect1_dropShadow_1_235"/>
<feBlend mode="normal" in="SourceGraphic" in2="effect1_dropShadow_1_235" result="shape"/>
</filter>
</defs>
</svg>
