<svg width="35" height="23" viewBox="0 0 35 23" fill="none" xmlns="http://www.w3.org/2000/svg">
<path d="M20.0286 14.1809L25.0402 9.45654C23.9992 5.4553 19.8647 3.0435 15.8054 4.06965C13.9774 4.53177 12.3897 5.64875 11.3522 7.2026C11.4298 7.20067 20.0286 14.1809 20.0286 14.1809Z" fill="#0364B8"/>
<path d="M14.6186 8.09187L14.6183 8.09268C13.6607 7.50804 12.5563 7.19901 11.4299 7.20052C11.4038 7.20052 11.3783 7.20215 11.3523 7.20245C8.00164 7.24337 5.3191 9.95395 5.36059 13.2567C5.37563 14.4547 5.75539 15.6207 6.45064 16.6034L13.9589 15.6765L19.7154 11.1012L14.6186 8.09187Z" fill="#0078D4"/>
<path d="M25.0404 9.45647C24.9302 9.44922 24.8195 9.4442 24.7075 9.4442C24.0351 9.44355 23.3698 9.57892 22.7526 9.84192L22.7525 9.8414L19.7154 11.1012L23.0636 15.1779L29.0493 16.6122C30.341 14.2484 29.4441 11.3001 27.0461 10.0268C26.4265 9.69782 25.7426 9.50336 25.0404 9.45649L25.0404 9.45647Z" fill="#1490DF"/>
<path d="M6.45062 16.6035C7.58433 18.2102 9.44438 19.1677 11.4298 19.1667H24.7074C26.5211 19.1672 28.1887 18.1861 29.0492 16.6123L19.7153 11.1012L6.45062 16.6035Z" fill="#28A8EA"/>
</svg>
